{
    "asset": {
        "generator": "FBX2glTF v0.9.7",
        "version": "2.0"
    },
    "scene": 0,
    "buffers": [
        {
            "byteLength": 159348,
            "uri": "buffer.bin"
        }
    ],
    "bufferViews": [
        {
            "buffer": 0,
            "byteLength": 14160,
            "byteOffset": 0,
            "target": 34963
        },
        {
            "buffer": 0,
            "byteLength": 56640,
            "byteOffset": 14160,
            "target": 34962
        },
        {
            "buffer": 0,
            "byteLength": 56640,
            "byteOffset": 70800,
            "target": 34962
        },
        {
            "buffer": 0,
            "byteLength": 3540,
            "byteOffset": 127440,
            "target": 34963
        },
        {
            "buffer": 0,
            "byteLength": 14184,
            "byteOffset": 130980,
            "target": 34962
        },
        {
            "buffer": 0,
            "byteLength": 14184,
            "byteOffset": 145164,
            "target": 34962
        }
    ],
    "scenes": [
        {
            "name": "Root Scene",
            "nodes": [
                0
            ]
        }
    ],
    "accessors": [
        {
            "componentType": 5123,
            "type": "SCALAR",
            "count": 7080,
            "bufferView": 0,
            "byteOffset": 0
        },
        {
            "componentType": 5126,
            "type": "VEC3",
            "count": 4720,
            "bufferView": 1,
            "byteOffset": 0,
            "min": [
                -0.00699248490855098,
                -0.0126214437186718,
                -0.000540441775228828
            ],
            "max": [
                0.00630569690838456,
                0.00602727709338069,
                0.0290513820946217
            ]
        },
        {
            "componentType": 5126,
            "type": "VEC3",
            "count": 4720,
            "bufferView": 2,
            "byteOffset": 0
        },
        {
            "componentType": 5123,
            "type": "SCALAR",
            "count": 1770,
            "bufferView": 3,
            "byteOffset": 0
        },
        {
            "componentType": 5126,
            "type": "VEC3",
            "count": 1182,
            "bufferView": 4,
            "byteOffset": 0,
            "min": [
                -0.0081982808187604,
                -0.016037080436945,
                0.0139593575149775
            ],
            "max": [
                0.00843360740691423,
                0.0093720443546772,
                0.0306874625384808
            ]
        },
        {
            "componentType": 5126,
            "type": "VEC3",
            "count": 1182,
            "bufferView": 5,
            "byteOffset": 0
        }
    ],
    "samplers": [
        {}
    ],
    "materials": [
        {
            "name": "Wood",
            "alphaMode": "OPAQUE",
            "extras": {
                "fromFBX": {
                    "shadingModel": "Phong",
                    "isTruePBR": false
                }
            },
            "pbrMetallicRoughness": {
                "baseColorFactor": [
                    0.122340939939022,
                    0.0562880821526051,
                    0.0476089976727962,
                    1.0
                ],
                "metallicFactor": 0.400000005960464,
                "roughnessFactor": 0.415087103843689
            }
        },
        {
            "name": "Green",
            "alphaMode": "OPAQUE",
            "extras": {
                "fromFBX": {
                    "shadingModel": "Phong",
                    "isTruePBR": false
                }
            },
            "pbrMetallicRoughness": {
                "baseColorFactor": [
                    0.069953553378582,
                    0.12185650318861,
                    0.0478881113231182,
                    1.0
                ],
                "metallicFactor": 0.400000005960464,
                "roughnessFactor": 0.415087103843689
            }
        }
    ],
    "meshes": [
        {
            "name": "CommonTree_2",
            "primitives": [
                {
                    "material": 0,
                    "mode": 4,
                    "attributes": {
                        "NORMAL": 2,
                        "POSITION": 1
                    },
                    "indices": 0
                },
                {
                    "material": 1,
                    "mode": 4,
                    "attributes": {
                        "NORMAL": 5,
                        "POSITION": 4
                    },
                    "indices": 3
                }
            ]
        }
    ],
    "nodes": [
        {
            "name": "RootNode",
            "translation": [
                0.0,
                0.0,
                0.0
            ],
            "rotation": [
                0.0,
                0.0,
                0.0,
                1.0
            ],
            "scale": [
                1.0,
                1.0,
                1.0
            ],
            "children": [
                1
            ]
        },
        {
            "name": "CommonTree_2",
            "translation": [
                0.0,
                0.0,
                0.0
            ],
            "rotation": [
                -0.707106828689575,
                0.0,
                0.0,
                0.707106709480286
            ],
            "scale": [
                100.0,
                100.0,
                100.0
            ],
            "mesh": 0
        }
    ]
}