# 3ds Max Wavefront OBJ Exporter v0.97b - (c)2007 guruware
# File Created: 24.01.2014 19:01:33

#
# object Banana
#

v  -3.1386 3.2639 0.9041
v  -3.0311 3.0605 0.7221
v  -2.8664 3.1049 0.9034
v  -2.9648 3.2539 1.0406
v  -2.7874 3.3680 0.3926
v  -3.1091 3.1072 0.4888
v  -3.2473 3.3322 0.6617
v  -2.8828 3.5767 0.4999
v  -2.6224 3.3589 0.7045
v  -2.6794 3.5377 0.8073
v  -2.7775 2.9159 0.8570
v  -2.9393 2.8588 0.6316
v  -2.9375 2.5258 0.6287
v  -2.6465 2.6410 1.0520
v  -2.6742 3.2417 0.2990
v  -2.4205 3.2824 0.0340
v  -3.0412 2.6380 0.1231
v  -3.0051 2.9199 0.3635
v  -2.5185 3.2325 0.6677
v  -2.1892 3.2825 0.7343
v  -0.7203 1.2000 0.0371
v  -0.1730 1.1693 0.0020
v  -0.1484 1.3835 0.7209
v  -0.6159 1.4174 0.7666
v  -0.1299 2.6071 -0.5259
v  -0.1824 1.3834 -0.7173
v  -0.7606 1.4166 -0.6991
v  -0.5375 2.6562 -0.5208
v  -0.1120 2.6071 0.5277
v  -0.4620 2.6565 0.5555
v  2.5916 2.2430 0.4898
v  2.7391 2.6107 0.5376
v  2.5470 2.6911 0.8313
v  2.3248 2.3746 0.9451
v  2.1172 3.0895 -0.0805
v  2.3983 3.1378 0.1316
v  2.8054 2.6858 0.1897
v  2.6855 2.3670 0.0004
v  2.2358 3.1411 0.6101
v  1.9037 3.0930 0.6534
v  2.8998 2.9372 0.6115
v  3.0483 3.1257 0.7111
v  2.8652 3.1230 0.8750
v  2.7604 2.9892 0.8071
v  2.9473 2.9848 0.3748
v  2.6490 3.2696 0.3185
v  2.8521 3.5247 0.4728
v  3.1488 3.2383 0.5171
v  2.5254 3.2722 0.6406
v  2.6634 3.4471 0.7462
v  -3.1326 3.6807 1.0212
v  -3.4257 3.5990 0.8746
v  -3.2622 3.4147 1.0811
v  2.9403 3.3817 0.6727
v  1.4218 1.4510 0.1456
v  1.9076 1.6641 0.2635
v  1.6628 1.8436 0.8702
v  1.2340 1.6422 0.7885
v  0.3728 1.2016 0.0098
v  0.9075 1.2961 0.0590
v  0.7844 1.4970 0.7336
v  0.3210 1.4102 0.7102
v  -1.5135 1.6669 0.9563
v  -1.8587 1.8365 1.0699
v  -2.1934 1.6234 0.3509
v  -1.7810 1.4509 0.2300
v  -1.0734 1.5121 0.8462
v  -1.2595 1.2941 0.1143
v  1.4770 2.8493 -0.3327
v  2.0007 1.8385 -0.3864
v  1.4931 1.6393 -0.5217
v  1.0916 2.7231 -0.4109
v  0.6912 2.6404 -0.4706
v  0.9543 1.4958 -0.6257
v  0.3926 1.4100 -0.6922
v  0.2819 2.6017 -0.5093
v  -2.3262 1.8284 -0.4350
v  -1.6121 3.0223 -0.4081
v  -1.3152 2.8810 -0.4521
v  -1.8860 1.6617 -0.5395
v  -1.3318 1.5096 -0.6387
v  -0.9346 2.7480 -0.4953
v  1.2928 2.8513 0.6026
v  0.9519 2.7243 0.5574
v  0.6004 2.6409 0.5288
v  0.2440 2.6018 0.5187
v  -1.3724 3.0252 0.7211
v  -1.1232 2.8828 0.6607
v  -0.8007 2.7489 0.6007
v  -2.7445 2.0233 0.5539
v  -2.3421 2.2142 1.2094
v  -2.4951 2.4106 1.1758
v  -2.8702 2.2473 0.6058
v  -2.0438 3.2564 -0.2838
v  -2.9043 2.2019 -0.2043
v  -3.0162 2.3987 -0.0660
v  -2.2139 3.2969 -0.1688
v  -1.7507 3.2609 0.7915
v  -1.9308 3.3016 0.7762
v  -2.6831 3.6529 0.9224
v  -2.9814 3.8121 0.6443
v  -2.9812 3.3597 1.1849
v  2.1945 2.2307 0.9706
v  2.4883 2.0761 0.4492
v  2.6007 2.2207 -0.1027
v  1.9751 3.0637 -0.1699
v  1.7524 3.0670 0.6634
v  2.3579 1.9322 0.4050
v  2.0644 2.1073 0.9566
v  -2.1841 2.0450 1.1976
v  -2.5842 1.8369 0.4903
v  1.8415 3.0176 -0.2392
v  2.4249 2.0701 -0.2115
v  -2.7447 2.0335 -0.3118
v  -1.8909 3.1886 -0.3571
v  1.6182 3.0207 0.6616
v  -1.6048 3.1926 0.7872
# 117 vertices

vn -0.6114 -0.7232 0.3211
vn -0.7129 -0.5870 0.3836
vn 0.0917 -0.4197 0.9030
vn 0.1791 -0.7263 0.6636
vn 0.0888 0.5857 -0.8057
vn -0.8694 -0.1546 -0.4694
vn -0.8719 -0.2242 -0.4354
vn 0.1386 0.5242 -0.8402
vn 0.8817 0.4064 0.2396
vn 0.9848 0.1713 0.0273
vn -0.4262 0.0747 0.9015
vn -0.8799 -0.2563 0.4002
vn -0.9093 -0.1444 0.3902
vn -0.5102 0.1927 0.8382
vn -0.2675 0.8226 -0.5019
vn -0.4015 0.8619 -0.3097
vn -0.9451 0.1933 -0.2636
vn -0.9350 0.1466 -0.3230
vn 0.1937 0.8538 0.4833
vn -0.1570 0.8568 0.4911
vn -0.1136 -0.9935 0.0034
vn 0.0013 -1.0000 -0.0057
vn 0.0460 -0.5593 0.8277
vn 0.0362 -0.5554 0.8308
vn 0.0566 0.7406 -0.6696
vn 0.0005 -0.5426 -0.8400
vn -0.1183 -0.5417 -0.8322
vn 0.0987 0.7276 -0.6789
vn 0.0914 0.7526 0.6521
vn 0.2192 0.7376 0.6387
vn 0.8200 -0.4775 0.3157
vn 0.8371 -0.4280 0.3407
vn 0.3868 -0.0387 0.9214
vn 0.3935 -0.0887 0.9150
vn 0.2208 0.8049 -0.5508
vn 0.1787 0.8030 -0.5686
vn 0.8766 -0.0652 -0.4768
vn 0.8752 -0.1221 -0.4682
vn -0.2029 0.8445 0.4957
vn -0.0948 0.8387 0.5362
vn 0.7494 -0.5793 0.3206
vn 0.8130 -0.2422 0.5295
vn 0.1961 -0.1109 0.9743
vn 0.1382 -0.2691 0.9531
vn 0.8242 -0.1691 -0.5405
vn -0.0196 0.7006 -0.7133
vn 0.1477 0.9140 -0.3780
vn 0.9644 0.1476 -0.2194
vn -0.6194 0.6586 0.4273
vn -0.4209 0.7102 0.5644
vn -0.1770 0.7417 0.6470
vn -0.9580 0.2863 0.0144
vn -0.6684 -0.2899 0.6850
vn 0.5411 0.6377 0.5482
vn 0.3316 -0.9408 0.0697
vn 0.4302 -0.8941 0.1248
vn 0.0876 -0.4772 0.8744
vn 0.0699 -0.5162 0.8536
vn 0.1163 -0.9932 0.0030
vn 0.2275 -0.9734 0.0289
vn 0.0644 -0.5393 0.8397
vn 0.0560 -0.5538 0.8308
vn 0.0286 -0.5226 0.8521
vn 0.0313 -0.5008 0.8650
vn -0.3991 -0.9095 0.1163
vn -0.3200 -0.9448 0.0705
vn 0.0281 -0.5426 0.8395
vn -0.2246 -0.9740 0.0299
vn -0.0972 0.6964 -0.7111
vn 0.4725 -0.4656 -0.7483
vn 0.3469 -0.5089 -0.7878
vn -0.0710 0.7226 -0.6876
vn -0.0293 0.7380 -0.6741
vn 0.2358 -0.5262 -0.8170
vn 0.1194 -0.5374 -0.8348
vn 0.0135 0.7440 -0.6680
vn -0.4220 -0.5093 -0.7500
vn 0.2156 0.6384 -0.7389
vn 0.1809 0.6739 -0.7164
vn -0.3350 -0.5240 -0.7830
vn -0.2341 -0.5349 -0.8118
vn 0.1389 0.7053 -0.6952
vn -0.4045 0.7057 0.5816
vn -0.2907 0.7333 0.6147
vn -0.1668 0.7503 0.6397
vn -0.0384 0.7569 0.6524
vn 0.5525 0.6361 0.5386
vn 0.4572 0.6766 0.5772
vn 0.3416 0.7121 0.6133
vn -0.7360 -0.6050 0.3038
vn -0.2668 -0.1980 0.9432
vn -0.3980 -0.0013 0.9174
vn -0.8447 -0.3954 0.3606
vn -0.0645 0.7801 -0.6223
vn -0.7949 -0.2328 -0.5603
vn -0.9082 -0.0311 -0.4173
vn -0.2570 0.8374 -0.4824
vn 0.2817 0.8022 0.5265
vn 0.0398 0.8633 0.5031
vn 0.8207 0.4543 0.3464
vn -0.0089 0.8938 -0.4483
vn 0.1895 -0.2873 0.9389
vn 0.2594 -0.2352 0.9367
vn 0.7301 -0.6275 0.2705
vn 0.7805 -0.2666 -0.5655
vn 0.1209 0.7859 -0.6065
vn -0.2113 0.8103 0.5466
vn 0.5738 -0.7926 0.2059
vn 0.1446 -0.3928 0.9082
vn -0.0973 -0.3964 0.9129
vn -0.5655 -0.7973 0.2111
vn -0.0308 0.7116 -0.7019
vn 0.6091 -0.4086 -0.6797
vn -0.6054 -0.4284 -0.6708
vn 0.1277 0.6768 -0.7250
vn -0.3773 0.7345 0.5641
vn 0.4911 0.6850 0.5381
# 117 vertex normals

vt 0.1480 0.1893 0.0000
vt 0.1747 0.2181 0.0000
vt 0.1360 0.2386 0.0000
vt 0.1217 0.2086 0.0000
vt 0.2564 0.1425 0.0000
vt 0.2124 0.1923 0.0000
vt 0.1802 0.1648 0.0000
vt 0.2282 0.1210 0.0000
vt 0.2732 0.0951 0.0000
vt 0.2546 0.0783 0.0000
vt 0.0819 0.2611 0.0000
vt 0.0670 0.2414 0.0000
vt 0.1459 0.2730 0.0000
vt 0.1915 0.2446 0.0000
vt 0.2084 0.2827 0.0000
vt 0.1527 0.3293 0.0000
vt 0.2883 0.1501 0.0000
vt 0.3505 0.1485 0.0000
vt 0.2708 0.2428 0.0000
vt 0.2387 0.2126 0.0000
vt 0.2943 0.0915 0.0000
vt 0.3398 0.0514 0.0000
vt 0.0402 0.3322 0.0000
vt 0.0803 0.2826 0.0000
vt 0.4265 0.5018 0.0000
vt 0.4755 0.5408 0.0000
vt 0.4117 0.6206 0.0000
vt 0.3599 0.5822 0.0000
vt 0.6562 0.3391 0.0000
vt 0.5409 0.4616 0.0000
vt 0.4934 0.4211 0.0000
vt 0.6131 0.2966 0.0000
vt 0.7578 0.2389 0.0000
vt 0.7138 0.1907 0.0000
vt 0.3147 0.7567 0.0000
vt 0.2536 0.7158 0.0000
vt 0.7658 0.7508 0.0000
vt 0.8113 0.7695 0.0000
vt 0.7846 0.8183 0.0000
vt 0.7289 0.8088 0.0000
vt 0.8793 0.6007 0.0000
vt 0.8979 0.6519 0.0000
vt 0.8379 0.7188 0.0000
vt 0.8001 0.6916 0.0000
vt 0.9644 0.6300 0.0000
vt 0.9747 0.5695 0.0000
vt 0.7811 0.9001 0.0000
vt 0.7196 0.9237 0.0000
vt 0.8554 0.7878 0.0000
vt 0.8854 0.8044 0.0000
vt 0.8629 0.8328 0.0000
vt 0.8375 0.8265 0.0000
vt 0.8764 0.7486 0.0000
vt 0.9193 0.6987 0.0000
vt 0.9515 0.7371 0.0000
vt 0.9129 0.7787 0.0000
vt 0.9644 0.6781 0.0000
vt 0.9835 0.7047 0.0000
vt 0.8291 0.8840 0.0000
vt 0.8622 0.8872 0.0000
vt 0.1476 0.0884 0.0000
vt 0.1405 0.1307 0.0000
vt 0.1097 0.0976 0.0000
vt 0.9539 0.7729 0.0000
vt 0.9897 0.7634 0.0000
vt 0.9670 0.8132 0.0000
vt 0.6216 0.6565 0.0000
vt 0.6714 0.6932 0.0000
vt 0.6238 0.7665 0.0000
vt 0.5691 0.7330 0.0000
vt 0.5243 0.5798 0.0000
vt 0.5729 0.6185 0.0000
vt 0.5159 0.6965 0.0000
vt 0.4637 0.6588 0.0000
vt 0.2580 0.5035 0.0000
vt 0.2191 0.4694 0.0000
vt 0.2903 0.3908 0.0000
vt 0.3287 0.4233 0.0000
vt 0.3084 0.5433 0.0000
vt 0.3775 0.4627 0.0000
vt 0.8238 0.5119 0.0000
vt 0.7239 0.6241 0.0000
vt 0.6797 0.5836 0.0000
vt 0.7845 0.4680 0.0000
vt 0.7426 0.4248 0.0000
vt 0.6343 0.5431 0.0000
vt 0.5880 0.5024 0.0000
vt 0.6995 0.3819 0.0000
vt 0.3599 0.3120 0.0000
vt 0.4950 0.1875 0.0000
vt 0.5288 0.2163 0.0000
vt 0.3977 0.3415 0.0000
vt 0.4457 0.3810 0.0000
vt 0.5705 0.2553 0.0000
vt 0.9309 0.4431 0.0000
vt 0.8885 0.3868 0.0000
vt 0.8448 0.3356 0.0000
vt 0.8013 0.2868 0.0000
vt 0.5643 0.0499 0.0000
vt 0.6166 0.0922 0.0000
vt 0.6676 0.1417 0.0000
vt 0.5745 0.9050 0.0000
vt 0.5040 0.8717 0.0000
vt 0.4384 0.8347 0.0000
vt 0.3759 0.7962 0.0000
vt 0.0757 0.5731 0.0000
vt 0.1299 0.6238 0.0000
vt 0.1920 0.6723 0.0000
vt 0.2359 0.3362 0.0000
vt 0.1706 0.4089 0.0000
vt 0.1595 0.3756 0.0000
vt 0.2219 0.3130 0.0000
vt 0.4365 0.1550 0.0000
vt 0.3088 0.2737 0.0000
vt 0.2928 0.2620 0.0000
vt 0.4014 0.1501 0.0000
vt 0.4481 0.0097 0.0000
vt 0.3937 0.0214 0.0000
vt 0.0103 0.4540 0.0000
vt 0.0130 0.3923 0.0000
vt 0.9348 0.8042 0.0000
vt 0.1760 0.0363 0.0000
vt 0.2010 0.0921 0.0000
vt 0.1097 0.0543 0.0000
vt 0.7049 0.8013 0.0000
vt 0.7451 0.7397 0.0000
vt 0.7839 0.6781 0.0000
vt 0.8686 0.5794 0.0000
vt 0.9707 0.5386 0.0000
vt 0.6856 0.9263 0.0000
vt 0.7244 0.7285 0.0000
vt 0.6810 0.7939 0.0000
vt 0.1854 0.4324 0.0000
vt 0.2518 0.3553 0.0000
vt 0.8580 0.5580 0.0000
vt 0.7677 0.6647 0.0000
vt 0.3223 0.2832 0.0000
vt 0.4603 0.1642 0.0000
vt 0.9667 0.5077 0.0000
vt 0.5015 0.0167 0.0000
vt 0.6515 0.9289 0.0000
vt 0.0289 0.5114 0.0000
vt 0.1052 0.1910 0.0000
vt 0.1241 0.1636 0.0000
vt 0.2468 0.0586 0.0000
vt 0.0534 0.2259 0.0000
# 146 texture coords

g Banana
s 1
f 1/1/1 2/2/2 3/3/3 4/4/4 
f 5/5/5 6/6/6 7/7/7 8/8/8 
f 9/9/9 5/5/5 8/8/8 10/10/10 
f 4/4/4 3/3/3 9/11/9 10/12/10 
f 11/13/11 12/14/12 13/15/13 14/16/14 
f 15/17/15 16/18/16 17/19/17 18/20/18 
f 19/21/19 20/22/20 16/18/16 15/17/15 
f 11/13/11 14/16/14 20/23/20 19/24/19 
f 21/25/21 22/26/22 23/27/23 24/28/24 
f 25/29/25 26/30/26 27/31/27 28/32/28 
f 29/33/29 25/29/25 28/32/28 30/34/30 
f 23/27/23 29/35/29 30/36/30 24/28/24 
f 31/37/31 32/38/32 33/39/33 34/40/34 
f 35/41/35 36/42/36 37/43/37 38/44/38 
f 39/45/39 36/42/36 35/41/35 40/46/40 
f 33/39/33 39/47/39 40/48/40 34/40/34 
f 41/49/41 42/50/42 43/51/43 44/52/44 
f 45/53/45 46/54/46 47/55/47 48/56/48 
f 46/54/46 49/57/49 50/58/50 47/55/47 
f 49/59/49 44/52/44 43/51/43 50/60/50 
f 7/7/7 6/6/6 2/2/2 1/1/1 
f 18/20/18 17/19/17 13/15/13 12/14/12 
f 26/30/26 22/26/22 21/25/21 27/31/27 
f 37/43/37 32/38/32 31/37/31 38/44/38 
f 45/53/45 48/56/48 42/50/42 41/49/41 
f 51/61/51 52/62/52 53/63/53 
f 54/64/54 50/65/50 43/66/43 
f 55/67/55 56/68/56 57/69/57 58/70/58 
f 59/71/59 60/72/60 61/73/61 62/74/62 
f 63/75/63 64/76/64 65/77/65 66/78/66 
f 24/28/24 67/79/67 68/80/68 21/25/21 
f 69/81/69 70/82/70 71/83/71 72/84/72 
f 73/85/73 74/86/74 75/87/75 76/88/76 
f 77/89/77 78/90/78 79/91/79 80/92/80 
f 81/93/81 82/94/82 28/32/28 27/31/27 
f 83/95/83 69/81/69 72/84/72 84/96/84 
f 85/97/85 73/85/73 76/88/76 86/98/86 
f 78/90/78 87/99/87 88/100/88 79/91/79 
f 82/94/82 89/101/89 30/34/30 28/32/28 
f 57/69/57 83/102/83 84/103/84 58/70/58 
f 61/73/61 85/104/85 86/105/86 62/74/62 
f 87/106/87 64/76/64 63/75/63 88/107/88 
f 89/108/89 67/79/67 24/28/24 30/36/30 
f 70/82/70 56/68/56 55/67/55 71/83/71 
f 74/86/74 60/72/60 59/71/59 75/87/75 
f 65/77/65 77/89/77 80/92/80 66/78/66 
f 68/80/68 81/93/81 27/31/27 21/25/21 
f 90/109/90 91/110/91 92/111/92 93/112/93 
f 94/113/94 95/114/95 96/115/96 97/116/97 
f 98/117/98 94/113/94 97/116/97 99/118/99 
f 92/111/92 91/110/91 98/119/98 99/120/99 
f 96/115/96 95/114/95 90/109/90 93/112/93 
f 48/56/48 47/55/47 54/64/54 
f 54/64/54 42/121/42 48/56/48 
f 54/64/54 43/66/43 42/121/42 
f 54/64/54 47/55/47 50/65/50 
f 100/122/100 101/123/101 51/61/51 
f 51/61/51 101/123/101 52/62/52 
f 51/61/51 102/124/102 100/122/100 
f 53/63/53 102/124/102 51/61/51 
f 32/38/32 41/49/41 44/52/44 33/39/33 
f 34/40/34 103/125/103 104/126/104 31/37/31 
f 36/42/36 46/54/46 45/53/45 37/43/37 
f 105/127/105 106/128/106 35/41/35 38/44/38 
f 49/57/49 46/54/46 36/42/36 39/45/39 
f 106/128/106 107/129/107 40/46/40 35/41/35 
f 44/52/44 49/59/49 39/47/39 33/39/33 
f 107/130/107 103/125/103 34/40/34 40/48/40 
f 45/53/45 41/49/41 32/38/32 37/43/37 
f 104/126/104 105/127/105 38/44/38 31/37/31 
f 93/112/93 92/111/92 14/16/14 13/15/13 
f 97/116/97 96/115/96 17/19/17 16/18/16 
f 99/118/99 97/116/97 16/18/16 20/22/20 
f 92/111/92 99/120/99 20/23/20 14/16/14 
f 22/26/22 59/71/59 62/74/62 23/27/23 
f 76/88/76 75/87/75 26/30/26 25/29/25 
f 86/98/86 76/88/76 25/29/25 29/33/29 
f 62/74/62 86/105/86 29/35/29 23/27/23 
f 17/19/17 96/115/96 93/112/93 13/15/13 
f 75/87/75 59/71/59 22/26/22 26/30/26 
f 56/68/56 108/131/108 109/132/109 57/69/57 
f 60/72/60 55/67/55 58/70/58 61/73/61 
f 64/76/64 110/133/110 111/134/111 65/77/65 
f 67/79/67 63/75/63 66/78/66 68/80/68 
f 69/81/69 112/135/112 113/136/113 70/82/70 
f 72/84/72 71/83/71 74/86/74 73/85/73 
f 114/137/114 115/138/115 78/90/78 77/89/77 
f 80/92/80 79/91/79 82/94/82 81/93/81 
f 116/139/116 112/135/112 69/81/69 83/95/83 
f 84/96/84 72/84/72 73/85/73 85/97/85 
f 115/138/115 117/140/117 87/99/87 78/90/78 
f 79/91/79 88/100/88 89/101/89 82/94/82 
f 109/132/109 116/141/116 83/102/83 57/69/57 
f 58/70/58 84/103/84 85/104/85 61/73/61 
f 117/142/117 110/133/110 64/76/64 87/106/87 
f 88/107/88 63/75/63 67/79/67 89/108/89 
f 113/136/113 108/131/108 56/68/56 70/82/70 
f 71/83/71 55/67/55 60/72/60 74/86/74 
f 111/134/111 114/137/114 77/89/77 65/77/65 
f 66/78/66 80/92/80 81/93/81 68/80/68 
f 2/2/2 12/14/12 11/13/11 3/3/3 
f 4/4/4 102/143/102 53/144/53 1/1/1 
f 15/17/15 18/20/18 6/6/6 5/5/5 
f 7/7/7 52/62/52 101/123/101 8/8/8 
f 9/9/9 19/21/19 15/17/15 5/5/5 
f 101/123/101 100/145/100 10/10/10 8/8/8 
f 3/3/3 11/13/11 19/24/19 9/11/9 
f 10/12/10 100/146/100 102/143/102 4/4/4 
f 6/6/6 18/20/18 12/14/12 2/2/2 
f 1/1/1 53/144/53 52/62/52 7/7/7 
f 111/134/111 110/133/110 91/110/91 90/109/90 
f 115/138/115 114/137/114 95/114/95 94/113/94 
f 117/140/117 115/138/115 94/113/94 98/117/98 
f 91/110/91 110/133/110 117/142/117 98/119/98 
f 95/114/95 114/137/114 111/134/111 90/109/90 
f 103/125/103 109/132/109 108/131/108 104/126/104 
f 113/136/113 112/135/112 106/128/106 105/127/105 
f 112/135/112 116/139/116 107/129/107 106/128/106 
f 116/141/116 109/132/109 103/125/103 107/130/107 
f 108/131/108 113/136/113 105/127/105 104/126/104 
# 110 polygons - 10 triangles

